<svg width="233" height="161" viewBox="0 0 233 161" fill="none" xmlns="http://www.w3.org/2000/svg">
<path fill-rule="evenodd" clip-rule="evenodd" d="M104.945 44H32.9443V56H94.4508L104.945 44Z" fill="black"/>
<path fill-rule="evenodd" clip-rule="evenodd" d="M104.945 117.701H32.9443V105.701H94.4508L104.945 117.701Z" fill="black"/>
<path fill-rule="evenodd" clip-rule="evenodd" d="M136.866 118H208.866V106H147.36L136.866 118Z" fill="#FFD700"/>
<path fill-rule="evenodd" clip-rule="evenodd" d="M73.9446 75H32.9443V87H67.969L73.9446 75Z" fill="black"/>
<path fill-rule="evenodd" clip-rule="evenodd" d="M99.6769 49.9999L67.7285 86.7007L60.2709 78.2803L87.5629 46.9286L99.6769 49.9999Z" fill="black"/>
<path fill-rule="evenodd" clip-rule="evenodd" d="M99.6769 111.701L67.7285 75L60.2709 83.4203L87.5629 114.772L99.6769 111.701Z" fill="black"/>
<path d="M18.9443 118V44H30.9443V118H18.9443Z" fill="black"/>
<path fill-rule="evenodd" clip-rule="evenodd" d="M161.145 62L119.577 109.928L128.647 117.839L177.076 62H161.145Z" fill="black"/>
<path fill-rule="evenodd" clip-rule="evenodd" d="M201.046 44L143.866 109.928L152.936 117.839L216.977 44H201.046Z" fill="#FFD700"/>
<path fill-rule="evenodd" clip-rule="evenodd" d="M82.998 83.2549L113.09 117.985H128.926L91.0323 74.251L82.998 83.2549Z" fill="black"/>
<path fill-rule="evenodd" clip-rule="evenodd" d="M107.501 56H203.867V44H118.109L107.501 56Z" fill="#FFD700"/>
<path fill-rule="evenodd" clip-rule="evenodd" d="M120.634 100.241L154.131 62H146.866L116.998 96.0968L120.634 100.241ZM114.771 93.558L121.869 77.7902L142.183 62H136.196L120.094 74.5159L118.733 73.8648L111.531 89.8653L114.771 93.558ZM97.2313 73.5688L104.444 69.5L108.007 62H102.861L101.945 67.5L95.5122 71.6097L97.2313 73.5688Z" fill="#FFD700"/>
<path d="M102.944 62H136.444L134.944 67H102.944V62Z" fill="#FFD700"/>
<path d="M103.944 68L121.444 74.4999L118.944 78.9998L102.944 69.4999L103.944 68Z" fill="#FFD700"/>
<rect x="100.118" y="69.6748" width="25.1005" height="4.69537" transform="rotate(48.7566 100.118 69.6748)" fill="#FFD700"/>
</svg>
